HIERARCHY
ROOT Hips
{
  OFFSET 5.84602e-005 68.8428 3.50346
  CHANNELS 6 Xposition Yposition Zposition Zrotation Xrotation Yrotation
  JOINT Spine
  {
    OFFSET 0 8.597 -4.6522
    CHANNELS 3 Zrotation Xrotation Yrotation
    JOINT Spine1
    {
      OFFSET 0 7.8454 0.4098
      CHANNELS 3 Zrotation Xrotation Yrotation
      JOINT Spine2
      {
        OFFSET 0 9.7078 -2.1609
        CHANNELS 3 Zrotation Xrotation Yrotation
        JOINT Neck
        {
          OFFSET 0 21.8761 -0.4549
          CHANNELS 3 Zrotation Xrotation Yrotation
          JOINT Head
          {
            OFFSET 0 12.3537 3.3602
            CHANNELS 3 Zrotation Xrotation Yrotation
            End Site
            {
              OFFSET 0.0001 18.9506 0.5657
            }
          }
        }
        JOINT LeftShoulder
        {
          OFFSET 2.2086 21.1115 7.2329
          CHANNELS 3 Zrotation Xrotation Yrotation
          JOINT LeftArm
          {
            OFFSET 13.1193 3.0282 -4.8998
            CHANNELS 3 Zrotation Xrotation Yrotation
            JOINT LeftForeArm
            {
              OFFSET 27.4081 -0.0973053 -0.2375
              CHANNELS 3 Zrotation Xrotation Yrotation
              JOINT LeftHand
              {
                OFFSET 22.8641 0.0662994 -0.1369
                CHANNELS 3 Zrotation Xrotation Yrotation
                JOINT LeftHandIndex1
                {
                  OFFSET 8.8614 0.775009 2.4612
                  CHANNELS 3 Zrotation Xrotation Yrotation
                  JOINT LeftHandIndex2
                  {
                    OFFSET 3.3146 -0.808304 0.5841
                    CHANNELS 3 Zrotation Xrotation Yrotation
                    JOINT LeftHandIndex3
                    {
                      OFFSET 2.2628 -0.552002 0.3989
                      CHANNELS 3 Zrotation Xrotation Yrotation
                      End Site
                      {
                        OFFSET 1.6102 -0.4807 0.2612
                      }
                    }
                  }
                }
                JOINT LeftHandMiddle1
                {
                  OFFSET 8.9937 0.895004 0.2143
                  CHANNELS 3 Zrotation Xrotation Yrotation
                  JOINT LeftHandMiddle2
                  {
                    OFFSET 4.0984 0.0113983 -0.0242
                    CHANNELS 3 Zrotation Xrotation Yrotation
                    JOINT LeftHandMiddle3
                    {
                      OFFSET 2.2716 0.00689697 -0.0138001
                      CHANNELS 3 Zrotation Xrotation Yrotation
                      End Site
                      {
                        OFFSET 2.0404 -0.1441 0.0027
                      }
                    }
                  }
                }
                JOINT LeftHandRing1
                {
                  OFFSET 8.5234 0.597198 -2.0164
                  CHANNELS 3 Zrotation Xrotation Yrotation
                  JOINT LeftHandRing2
                  {
                    OFFSET 3.7188 -0.188293 -0.2328
                    CHANNELS 3 Zrotation Xrotation Yrotation
                    JOINT LeftHandRing3
                    {
                      OFFSET 2.1191 -0.106598 -0.1332
                      CHANNELS 3 Zrotation Xrotation Yrotation
                      End Site
                      {
                        OFFSET 1.8737 -0.2304 -0.0886
                      }
                    }
                  }
                }
                JOINT LeftHandPinky1
                {
                  OFFSET 7.9094 -0.601089 -3.4825
                  CHANNELS 3 Zrotation Xrotation Yrotation
                  JOINT LeftHandPinky2
                  {
                    OFFSET 2.2874 -0.477005 -0.6314
                    CHANNELS 3 Zrotation Xrotation Yrotation
                    JOINT LeftHandPinky3
                    {
                      OFFSET 1.6774 -0.349396 -0.4633
                      CHANNELS 3 Zrotation Xrotation Yrotation
                      End Site
                      {
                        OFFSET 1.4888 -0.4091 -0.3416
                      }
                    }
                  }
                }
                JOINT LeftHandThumb1
                {
                  OFFSET 1.833 -1.3875 1.3896
                  CHANNELS 3 Zrotation Xrotation Yrotation
                  JOINT LeftHandThumb2
                  {
                    OFFSET 3.4129 -1.121 2.5732
                    CHANNELS 3 Zrotation Xrotation Yrotation
                    JOINT LeftHandThumb3
                    {
                      OFFSET 2.2474 -0.804199 1.6192
                      CHANNELS 3 Zrotation Xrotation Yrotation
                      End Site
                      {
                        OFFSET 1.6527 -0.5689 1.1317
                      }
                    }
                  }
                }
              }
            }
          }
        }
        JOINT RightShoulder
        {
          OFFSET -2.2086 21.1115 7.2329
          CHANNELS 3 Zrotation Xrotation Yrotation
          JOINT RightArm
          {
            OFFSET -13.1216 3.0287 -4.9007
            CHANNELS 3 Zrotation Xrotation Yrotation
            JOINT RightForeArm
            {
              OFFSET -27.4081 -0.0973053 -0.2375
              CHANNELS 3 Zrotation Xrotation Yrotation
              JOINT RightHand
              {
                OFFSET -22.8641 0.0664063 -0.1369
                CHANNELS 3 Zrotation Xrotation Yrotation
                JOINT RightHandIndex1
                {
                  OFFSET -8.8614 0.774994 2.4612
                  CHANNELS 3 Zrotation Xrotation Yrotation
                  JOINT RightHandIndex2
                  {
                    OFFSET -3.3146 -0.808304 0.5841
                    CHANNELS 3 Zrotation Xrotation Yrotation
                    JOINT RightHandIndex3
                    {
                      OFFSET -2.2628 -0.552002 0.3989
                      CHANNELS 3 Zrotation Xrotation Yrotation
                      End Site
                      {
                        OFFSET -1.6102 -0.4807 0.2612
                      }
                    }
                  }
                }
                JOINT RightHandMiddle1
                {
                  OFFSET -8.9937 0.894989 0.2143
                  CHANNELS 3 Zrotation Xrotation Yrotation
                  JOINT RightHandMiddle2
                  {
                    OFFSET -4.0984 0.0113983 -0.0242
                    CHANNELS 3 Zrotation Xrotation Yrotation
                    JOINT RightHandMiddle3
                    {
                      OFFSET -2.2716 0.00691223 -0.0138001
                      CHANNELS 3 Zrotation Xrotation Yrotation
                      End Site
                      {
                        OFFSET -2.0404 -0.1441 0.0027
                      }
                    }
                  }
                }
                JOINT RightHandRing1
                {
                  OFFSET -8.5234 0.597198 -2.0164
                  CHANNELS 3 Zrotation Xrotation Yrotation
                  JOINT RightHandRing2
                  {
                    OFFSET -3.7188 -0.188309 -0.2328
                    CHANNELS 3 Zrotation Xrotation Yrotation
                    JOINT RightHandRing3
                    {
                      OFFSET -2.1191 -0.106598 -0.1332
                      CHANNELS 3 Zrotation Xrotation Yrotation
                      End Site
                      {
                        OFFSET -1.8737 -0.2304 -0.0886
                      }
                    }
                  }
                }
                JOINT RightHandPinky1
                {
                  OFFSET -7.9094 -0.601105 -3.4825
                  CHANNELS 3 Zrotation Xrotation Yrotation
                  JOINT RightHandPinky2
                  {
                    OFFSET -2.2874 -0.477005 -0.6314
                    CHANNELS 3 Zrotation Xrotation Yrotation
                    JOINT RightHandPinky3
                    {
                      OFFSET -1.6774 -0.349396 -0.4633
                      CHANNELS 3 Zrotation Xrotation Yrotation
                      End Site
                      {
                        OFFSET -1.4888 -0.4091 -0.3416
                      }
                    }
                  }
                }
                JOINT RightHandThumb1
                {
                  OFFSET -1.833 -1.38751 1.3896
                  CHANNELS 3 Zrotation Xrotation Yrotation
                  JOINT RightHandThumb2
                  {
                    OFFSET -3.41299 -1.12099 2.5732
                    CHANNELS 3 Zrotation Xrotation Yrotation
                    JOINT RightHandThumb3
                    {
                      OFFSET -2.24741 -0.804108 1.6192
                      CHANNELS 3 Zrotation Xrotation Yrotation
                      End Site
                      {
                        OFFSET -1.6527 -0.5689 1.1317
                      }
                    }
                  }
                }
              }
            }
          }
        }
      }
    }
  }
  JOINT RightUpLeg
  {
    OFFSET -9.1966 3.8861 -0.7581
    CHANNELS 3 Zrotation Xrotation Yrotation
    JOINT RightLeg
    {
      OFFSET -0.7359 -41.0265 0
      CHANNELS 3 Zrotation Xrotation Yrotation
      JOINT RightFoot
      {
        OFFSET 0 -40.2855 0
        CHANNELS 3 Zrotation Xrotation Yrotation
        JOINT RightToeBase
        {
          OFFSET 0 -5.6122 11.7359
          CHANNELS 3 Zrotation Xrotation Yrotation
          End Site
          {
            OFFSET 0 0 7.8731
          }
        }
      }
    }
  }
  JOINT LeftUpLeg
  {
    OFFSET 9.1965 3.8864 -0.7581
    CHANNELS 3 Zrotation Xrotation Yrotation
    JOINT LeftLeg
    {
      OFFSET 0.7359 -41.0268 0
      CHANNELS 3 Zrotation Xrotation Yrotation
      JOINT LeftFoot
      {
        OFFSET 0 -40.2855 0
        CHANNELS 3 Zrotation Xrotation Yrotation
        JOINT LeftToeBase
        {
          OFFSET 0 -5.6122 11.7359
          CHANNELS 3 Zrotation Xrotation Yrotation
          End Site
          {
            OFFSET 0 0 7.8731
          }
        }
      }
    }
  }
}
MOTION
Frames:	4
Frame Time:	0.0333333
39.5029 18.9895 59.6807 89.3108 -89.7452 -90.4221 0.248994 4.46334 -0.163183 0.513129 8.92592 -0.347477 0.513129 8.92591 -0.347477 5.26493e-007 15.3485 -1.85008e-007 2.14738e-008 -24.0027 -3.68003e-009 -25.0091 15.2493 12.6621 10.4 -17.8614 -74.712 1.51831 -6.63329 -90.628 59.6324 -19.263 33.2693 1.59028e-015 3.18055e-015 3.18055e-015 1.59028e-015 4.77083e-015 -0 7.95139e-016 1.59028e-015 -6.36111e-015 1.59028e-015 3.18055e-015 3.18055e-015 -0.0146369 -8.7963e-005 -2.16986e-006 0 0 -0 1.59028e-015 3.18055e-015 3.18055e-015 -0.0187367 -0.0011735 6.13134e-005 2.94965e-007 8.69364e-007 -5.92202e-007 1.59028e-015 3.18055e-015 3.18055e-015 -0.0123487 -0.00326979 0.000677995 2.94389e-007 8.69516e-007 -5.9231e-007 1.59028e-015 3.18055e-015 3.18055e-015 1.59028e-015 4.77083e-015 -0 7.95139e-016 1.59028e-015 -6.36111e-015 23.0722 5.16401 -16.1429 -6.90015 -5.25037 80.4137 -1.46922 -6.15198 86.7169 -54.2396 -5.54017 -26.5508 -2.69687e-007 -6.02947e-007 5.40553e-007 -2.02265e-007 -4.5221e-007 4.05414e-007 -1.34844e-007 -3.01474e-007 2.70276e-007 -2.69687e-007 -6.02947e-007 5.40553e-007 0.014995 -9.64905e-005 -4.77169e-006 -1.34845e-007 -3.01438e-007 2.70316e-007 -2.69687e-007 -6.02947e-007 5.40553e-007 0.0189711 -0.00119107 -5.8964e-005 -1.34842e-007 -3.01429e-007 2.70328e-007 -2.69687e-007 -6.02947e-007 5.40553e-007 0.0122587 -0.00324564 -0.000676491 -1.34835e-007 -3.01445e-007 2.70312e-007 -2.69687e-007 -6.02947e-007 5.40553e-007 -2.02265e-007 -4.5221e-007 4.05414e-007 -1.34844e-007 -3.01474e-007 2.70276e-007 -92.097 -44.205 -110.219 -144.784 71.5538 145.648 -10.7779 43.8087 5.95863 -9.44556e-007 4.31995e-006 7.84274e-007 92.0949 -44.2011 110.205 144.79 71.5505 -145.668 10.7693 43.8055 -5.96449 7.15501e-007 -4.17407e-006 2.00042e-006 
39.5029 18.9895 59.6807 89.3108 -89.7452 -90.4221 0.249384 4.27352 -0.161161 0.513011 8.54621 -0.342468 0.513011 8.54624 -0.342469 3.01697e-006 15.6985 -1.80764e-006 -1.76037e-007 -24.0027 -3.85747e-008 -25.1126 15.9307 12.3037 10.3978 -17.7849 -74.4352 1.5103 -6.57138 -89.5005 59.3395 -19.9209 32.974 1.59028e-015 1.59028e-015 -6.36111e-015 3.18055e-015 1.59028e-015 -3.18055e-015 1.59028e-015 0 -0 1.59028e-015 1.59028e-015 -6.36111e-015 -0.0146468 -9.14725e-005 2.55781e-006 3.18055e-015 0 -6.36111e-015 1.59028e-015 1.59028e-015 -6.36111e-015 -0.0188298 -0.00117881 5.43042e-005 2.38542e-015 0 -3.18055e-015 1.59028e-015 1.59028e-015 -6.36111e-015 -0.0123248 -0.00326191 0.000676887 1.59028e-015 -1.59028e-015 -0 1.59028e-015 1.59028e-015 -6.36111e-015 3.18055e-015 1.59028e-015 -3.18055e-015 1.59028e-015 0 -0 23.1152 5.80708 -15.8358 -6.90015 -5.25038 80.4136 -1.45957 -6.10781 85.568 -54.1032 -6.20445 -26.2665 1.34826e-007 3.01175e-007 -2.70585e-007 1.59028e-015 3.18055e-015 -0 -3.18055e-015 6.36111e-015 3.18055e-015 1.34826e-007 3.01175e-007 -2.70585e-007 0.0149644 -8.6694e-005 5.40574e-006 0 0 -6.36111e-015 1.34826e-007 3.01175e-007 -2.70585e-007 0.0189842 -0.00119432 -6.37383e-005 1.11319e-014 0 3.18055e-015 1.34826e-007 3.01175e-007 -2.70585e-007 0.0122532 -0.00323869 -0.000668622 -4.77083e-015 6.36111e-015 -1.27222e-014 1.34826e-007 3.01175e-007 -2.70585e-007 1.59028e-015 3.18055e-015 -0 -3.18055e-015 6.36111e-015 3.18055e-015 -92.097 -44.205 -110.219 -144.784 71.5538 145.648 -10.7779 43.8087 5.95863 -9.44556e-007 4.31995e-006 7.84274e-007 92.0949 -44.2011 110.205 144.79 71.5505 -145.668 10.7693 43.8055 -5.96449 7.15501e-007 -4.17407e-006 2.00042e-006 
39.5029 18.9895 59.6807 89.3108 -89.7452 -90.4221 0.249769 4.08358 -0.159132 0.512904 8.16643 -0.337454 0.512904 8.16641 -0.337454 3.60345e-008 16.0477 -6.03467e-007 2.15133e-007 -24.0027 -1.8048e-007 -25.2121 16.6131 11.945 10.3951 -17.7084 -74.1586 1.50103 -6.50955 -88.3714 59.0414 -20.5778 32.6736 2.82819e-007 8.69294e-007 -5.89298e-007 -2.82819e-007 -8.69294e-007 5.89298e-007 2.82819e-007 8.69294e-007 -5.89298e-007 2.82819e-007 8.69294e-007 -5.89298e-007 -0.0146122 -8.98031e-005 -6.03633e-007 -0 -3.18055e-015 -0 2.82819e-007 8.69294e-007 -5.89298e-007 -0.0187414 -0.00117408 5.69138e-005 -0 0 3.18055e-015 2.82819e-007 8.69294e-007 -5.89298e-007 -0.0123008 -0.00325356 0.000673292 -7.95139e-016 4.77083e-015 -9.54166e-015 2.82819e-007 8.69294e-007 -5.89298e-007 -2.82819e-007 -8.69294e-007 5.89298e-007 2.82819e-007 8.69294e-007 -5.89298e-007 23.1548 6.45072 -15.5286 -6.90015 -5.25038 80.4137 -1.44903 -6.06377 84.4174 -53.9634 -6.86847 -25.9801 -1.34816e-007 -3.00864e-007 2.70902e-007 2.02224e-007 4.51296e-007 -4.06353e-007 -6.74081e-008 -1.50432e-007 1.35451e-007 -1.34816e-007 -3.00864e-007 2.70902e-007 0.0149694 -9.05323e-005 -4.31665e-007 -5.08621e-007 -5.57076e-008 -1.89348e-007 -1.34816e-007 -3.00864e-007 2.70902e-007 0.0189922 -0.00118972 -5.54292e-005 -5.75671e-007 -2.06222e-007 -5.38694e-008 -1.34816e-007 -3.00864e-007 2.70902e-007 0.0121659 -0.00322143 -0.000670627 -5.08877e-007 -5.59856e-008 -1.89395e-007 -1.34816e-007 -3.00864e-007 2.70902e-007 2.02224e-007 4.51296e-007 -4.06353e-007 -6.74081e-008 -1.50432e-007 1.35451e-007 -92.097 -44.205 -110.219 -144.784 71.5538 145.648 -10.7779 43.8087 5.95863 -9.44556e-007 4.31995e-006 7.84274e-007 92.0949 -44.2011 110.205 144.79 71.5505 -145.668 10.7693 43.8055 -5.96449 7.15501e-007 -4.17407e-006 2.00042e-006 
39.5029 18.9895 59.6807 89.3108 -89.7452 -90.4221 0.250132 3.89362 -0.157019 0.51277 7.78651 -0.332276 0.51277 7.78651 -0.332276 2.32557e-006 16.3983 -7.5183e-007 1.20077e-007 -24.0027 4.78641e-008 -25.3076 17.2967 11.586 10.3921 -17.6319 -73.882 1.49056 -6.44783 -87.2408 58.7382 -21.2336 32.368 -7.95139e-016 -1.59028e-015 -0 -3.60194e-007 1.77381e-006 -5.10354e-007 1.59028e-015 0 3.18055e-015 -7.95139e-016 -1.59028e-015 -0 -0.0145922 -8.92911e-005 -1.70324e-006 1.59028e-015 -1.59028e-015 -0 -7.95139e-016 -1.59028e-015 -0 -0.0187412 -0.00117671 5.80093e-005 -2.38542e-015 -3.18055e-015 6.36111e-015 -7.95139e-016 -1.59028e-015 -0 -0.0122957 -0.00325385 0.000677245 2.38542e-015 3.18055e-015 -0 -7.95139e-016 -1.59028e-015 -0 -3.60194e-007 1.77381e-006 -5.10354e-007 1.59028e-015 0 3.18055e-015 23.191 7.09493 -15.2213 -6.90016 -5.25038 80.4136 -1.43758 -6.01988 83.2652 -53.8198 -7.53217 -25.6914 -3.18055e-015 -3.18055e-015 -3.18055e-015 -2.02223e-007 -4.50808e-007 4.06841e-007 2.02223e-007 4.50808e-007 -4.06841e-007 -3.18055e-015 -3.18055e-015 -3.18055e-015 0.0150248 -9.22138e-005 -1.71134e-007 2.02225e-007 4.50754e-007 -4.06901e-007 -3.18055e-015 -3.18055e-015 -3.18055e-015 0.0189504 -0.00118826 -6.0931e-005 6.38823e-007 3.71399e-007 -9.66723e-008 -3.18055e-015 -3.18055e-015 -3.18055e-015 0.0123683 -0.00327356 -0.000679511 2.02211e-007 4.50765e-007 -4.06896e-007 -3.18055e-015 -3.18055e-015 -3.18055e-015 -2.02223e-007 -4.50808e-007 4.06841e-007 2.02223e-007 4.50808e-007 -4.06841e-007 -92.097 -44.205 -110.219 -144.784 71.5538 145.648 -10.7779 43.8087 5.95863 -9.44556e-007 4.31995e-006 7.84274e-007 92.0949 -44.2011 110.205 144.79 71.5505 -145.668 10.7693 43.8055 -5.96449 7.15501e-007 -4.17407e-006 2.00042e-006 
